<svg xmlns="http://www.w3.org/2000/svg" width="32" height="28.695" viewBox="0 0 32 28.695">
  <defs>
    <style>
      .cls-1 {
        fill: #fff;
      }
    </style>
  </defs>
  <g id="Like_Icon_Empty" transform="translate(-242.473 -372.021)">
    <path id="패스_26" data-name="패스 26" class="cls-1" d="M258.518,400.716a.951.951,0,0,1-.673-.279l-12.5-12.5a9.4,9.4,0,0,1-2.135-10.393,8.735,8.735,0,0,1,8.166-5.521,7.356,7.356,0,0,1,7.1,4.1l.04.081c.982-2.03,3-4.18,7.147-4.18a8.617,8.617,0,0,1,6.643,3.032,9.361,9.361,0,0,1,2.159,4.83.952.952,0,1,1-1.886.26,7.459,7.459,0,0,0-1.718-3.851,6.74,6.74,0,0,0-5.2-2.368,5.632,5.632,0,0,0-5.973,4.631,7.464,7.464,0,0,0-.221,1.59.952.952,0,0,1-.951.923H258.5a.952.952,0,0,1-.937-.952c0-.25-.106-6.193-6.193-6.193a6.861,6.861,0,0,0-6.408,4.346,7.534,7.534,0,0,0,1.722,8.319l11.83,11.83,9-9c1.1-1.179,2.255-2.474,3.159-3.537a6.967,6.967,0,0,1-3.412,1.022,6.8,6.8,0,0,1-3.067-1.126,3.61,3.61,0,0,0-2.028-.721h0a3.7,3.7,0,0,0-2.2.85,5.4,5.4,0,0,1-3.195,1.153h0a5.873,5.873,0,0,1-3.338-1.183,3.771,3.771,0,0,0-2.065-.82h-.041a4.055,4.055,0,0,0-2.851,1.643.952.952,0,0,1-1.428-1.258,5.839,5.839,0,0,1,4.248-2.288,5.446,5.446,0,0,1,3.159,1.116,4.147,4.147,0,0,0,2.317.886h0a3.626,3.626,0,0,0,2.143-.836,5.473,5.473,0,0,1,3.247-1.167h0a5.434,5.434,0,0,1,3.008.993,4.91,4.91,0,0,0,2.265.863c.722.068,2.385-.822,3.378-1.353,1.519-.813,2.356-1.261,3.039-.621a1.24,1.24,0,0,1,.162,1.538c-.546,1.207-4.363,5.34-5.123,6.156l-.024.025-9.684,9.684A.951.951,0,0,1,258.518,400.716Z" transform="translate(0)"/>
  </g>
</svg>
