<svg id="ShoppingList_Icon_Empty" xmlns="http://www.w3.org/2000/svg" width="32" height="31.015" viewBox="0 0 32 31.015">
  <defs>
    <style>
      .cls-1 {
        fill: #fff;
      }
    </style>
  </defs>
  <path id="쇼핑리스트_아이콘" data-name="쇼핑리스트 아이콘" class="cls-1" d="M896.34,230.731a3.014,3.014,0,0,0-2.665-1.5h-.269v-1.053a7.172,7.172,0,0,0-1.719-4.228c-2.173-2.62-5.933-3.948-11.177-3.948s-9,1.328-11.177,3.948a7.171,7.171,0,0,0-1.719,4.228v1.07a2.984,2.984,0,0,0-2.092,1.148,3.738,3.738,0,0,0-.565,3.246l3.824,15.023a3.4,3.4,0,0,0,3.3,2.352h17.467a3.4,3.4,0,0,0,3.3-2.352L895.9,236.7a1.006,1.006,0,0,0-1.092-1.253c-.576-.089-1.241.266-2.346.857a9.087,9.087,0,0,1-3.058,1.239,4.447,4.447,0,0,1-2.045-.782,5.149,5.149,0,0,0-2.855-.939h0a5.248,5.248,0,0,0-3.081,1.1,3.261,3.261,0,0,1-1.915.753h0a3.746,3.746,0,0,1-2.078-.8,5.159,5.159,0,0,0-3-1.055,5.535,5.535,0,0,0-4.032,2.164,1.012,1.012,0,1,0,1.519,1.338,3.64,3.64,0,0,1,2.547-1.478h.035a3.4,3.4,0,0,1,1.845.74,5.627,5.627,0,0,0,3.163,1.117h0a5.176,5.176,0,0,0,3.033-1.09,3.327,3.327,0,0,1,1.964-.767h0a3.246,3.246,0,0,1,1.813.65,6.415,6.415,0,0,0,2.9,1.062c1.236.12,2.813-.726,4.2-1.47l.047-.025-2.571,10.1a1.435,1.435,0,0,1-1.342.827H872.084a1.435,1.435,0,0,1-1.342-.827l-3.824-15.023a1.77,1.77,0,0,1,.2-1.5,1.006,1.006,0,0,1,.839-.384h25.715a1.009,1.009,0,0,1,.921.5,1.864,1.864,0,0,1,.121,1.384,1.012,1.012,0,0,0,1.962.5A3.837,3.837,0,0,0,896.34,230.731Zm-15.83-8.707c10.641,0,10.867,5.909,10.872,6.152v1.053H869.639v-1.044C869.643,227.933,869.869,222.024,880.51,222.024Z" transform="translate(-864.818 -220)"/>
</svg>
